<svg viewBox="0 0 396 281.2674" width="5000px" height="3551.355997721354px" xmlns="http://www.w3.org/2000/svg" xmlns:xlink="http://www.w3.org/1999/xlink" preserveAspectRatio="none"><defs></defs><style>.aD6z1nYkhcolorNU6f2lLJk {fill:#000;fill-opacity:1;}.aLgOaV3zRcolors-0NU6f2lLJk {fill:#28208C;fill-opacity:1;}.textNU6f2lLJk {fill:#000;fill-opacity:1;}</style><g opacity="1" transform="rotate(0 71.9425 0)">
        <svg width="252.115" height="281.2674" x="71.9425" y="0" version="1.1" preserveAspectRatio="none" viewBox="1.0155029296875 1.0040283203125 51.98445510864258 57.99549865722656">
          <g transform="matrix(1 0 0 1 0 0)" class="aLgOaV3zRcolors-0NU6f2lLJk"><title>96 - Spades - (Outline)</title><desc>Created with Sketch.</desc><g stroke-width="1" fill-rule="evenodd"><g transform="translate(-362.000000, -745.000000)" stroke-width="2"><g transform="translate(363.000000, 746.000000)"><path d="M31.3034,44.2235 C33.1714,46.0285 34.2904,47.1415 37.6364,47.0035 C42.5634,46.8015 47.1374,44.1195 49.6854,39.8975 C54.0784,32.6195 51.6764,25.3375 47.0004,20.9995 L27.9024,0.7435 C26.8254,-0.2425 25.1744,-0.2425 24.0974,0.7435 L4.7214,20.9995 C0.1754,25.2165 -1.7646,32.2185 2.0334,39.2925 C4.4444,43.7835 9.0304,46.8095 14.1234,47.0055 C17.4404,47.1325 18.7454,46.0245 20.6664,44.2315 C21.1714,43.7595 21.9994,44.1145 21.9994,44.8065 L22.0004,48.2035 C22.0004,50.0355 21.5214,51.8365 20.6124,53.4275 L18.8544,56.5035 C18.4744,57.1705 18.9554,57.9995 19.7234,57.9995 L32.2764,57.9995 C33.0444,57.9995 33.5264,57.1705 33.1454,56.5035 L31.3874,53.4275 C30.4784,51.8365 30.0004,50.0355 30.0004,48.2035 L30.0004,44.7715 C30.0004,44.0945 30.8164,43.7535 31.3034,44.2235 L31.3034,44.2235 Z"></path><path d="M47,27.9983 C48.185,30.7803 48.448,34.2083 46.261,37.8313 C45.158,39.6593 43.503,41.1053 41.581,42.0003 C40.301,42.5963 38.904,42.9483 37.472,43.0073" stroke-linecap="round" stroke-linejoin="round"></path></g></g></g></g>
        </svg>
      </g><g opacity="1" transform="rotate(0 0 100.8106)">
        <svg width="396" height="39.8231" x="0" y="100.8106" version="1.1" preserveAspectRatio="none" viewBox="3.2 -30 298.32000000000005 30">
          <g transform="matrix(1 0 0 1 0 0)" class="aD6z1nYkhcolorNU6f2lLJk"><path d="M25.96-3.20L25.96 0L17.48 0L17.48-3.20L19.80-3.20L13.32-13.40L9.68-13.40L9.68-3.20L12.48-3.20L12.48 0L3.20 0L3.20-3.20L6-3.20L6-26.80L3.20-26.80L3.20-30L12.48-30L12.48-26.80L9.68-26.80L9.68-16.60L13.04-16.60L19.44-26.80L17.08-26.80L17.08-30L25.56-30L25.56-26.80L23.56-26.80L16.28-15.24L23.92-3.20L25.96-3.20Z M29.96-22.80L29.96-26L49-26L49-18.16L45.80-18.16L45.80-22.80L36.44-22.80L36.44-14.60L45.80-14.60L45.80-11.40L36.44-11.40L36.44-3.20L45.80-3.20L45.80-7.84L49-7.84L49 0L29.96 0L29.96-3.20L32.76-3.20L32.76-22.80L29.96-22.80Z M55.20-22.80L53-22.80L53-26L61.48-26L61.48-22.80L58.88-22.80L65.92-3.16L73-22.80L70.40-22.80L70.40-26L78.88-26L78.88-22.80L76.68-22.80L68.48 0L63.40 0L55.20-22.80Z M82.48 0L82.48-3.20L85.68-3.20L85.68-22.80L82.48-22.80L82.48-26L92.56-26L92.56-22.80L89.36-22.80L89.36-3.20L92.56-3.20L92.56 0L82.48 0Z M105.04-22.04L105.04-3.20L107.84-3.20L107.84 0L98.56 0L98.56-3.20L101.36-3.20L101.36-22.80L98.56-22.80L98.56-26L106.88-26L118.56-3.92L118.56-22.80L115.76-22.80L115.76-26L125.04-26L125.04-22.80L122.24-22.80L122.24 0L116.72 0L105.04-22.04Z M154.96-5.56L154.96-26.80L152.16-26.80L152.16-30L161.04-30L161.04-26.80L158.64-26.80L158.64-4.40L154.48 0L146.80 0L142.64-4.40L142.64-11.44L145.84-11.44L145.84-6.04L148.36-3.44L152.88-3.44L154.96-5.56Z M195.84-6.04L195.84-9.44L199.04-9.44L199.04-4.40L194.88 0L184.80 0L180.64-4.40L180.64-25.60L184.80-30L194.88-30L199.04-25.60L199.04-20.56L195.84-20.56L195.84-23.96L193.32-26.56L186.40-26.56L184.32-24.44L184.32-5.56L186.36-3.44L193.28-3.44L195.84-6.04Z M204.64-22.80L204.64-26L220.64-26L224.80-21.60L224.80-13.60L220.76-9.36L224.48-3.20L226.60-3.20L226.60 0L219.48 0L219.48-3.20L220.60-3.20L217.00-9.20L211.12-9.20L211.12-3.20L213.52-3.20L213.52 0L204.64 0L204.64-3.20L207.44-3.20L207.44-22.80L204.64-22.80ZM219.08-22.56L211.12-22.56L211.12-12.64L219.04-12.64L221.36-15L221.36-20.20L219.08-22.56Z M255.08 0L246.60 0L246.60-3.20L249.24-3.20L247.52-8.16L237.52-8.16L235.80-3.20L238.48-3.20L238.48 0L230.00 0L230.00-3.20L232.12-3.20L238.88-22.80L237.20-22.80L237.20-26L247.88-26L247.88-22.80L246.16-22.80L252.92-3.20L255.08-3.20L255.08 0ZM246.44-11.36L242.52-22.68L238.60-11.36L246.44-11.36Z M258.88-22.80L258.88-26L277.92-26L277.92-18.16L274.72-18.16L274.72-22.80L265.36-22.80L265.36-14.60L274.72-14.60L274.72-11.40L265.36-11.40L265.36-3.20L268.56-3.20L268.56 0L258.88 0L258.88-3.20L261.68-3.20L261.68-22.80L258.88-22.80Z M296.96-3.20L296.96 0L285.28 0L285.28-3.20L289.28-3.20L289.28-22.80L283.76-22.80L283.76-18.16L280.72-18.16L280.72-26L301.52-26L301.52-18.16L298.48-18.16L298.48-22.80L292.96-22.80L292.96-3.20L296.96-3.20Z"></path></g>
        </svg>
      </g><g opacity="1" transform="rotate(0 75.58500000000001 180.4569)">
        <svg width="244.83" height="21.8079" x="75.58500000000001" y="180.4569" version="1.1" preserveAspectRatio="none" viewBox="0.8 -30 336.79999999999995 30">
          <g transform="matrix(1 0 0 1 0 0)" class="textNU6f2lLJk"><path d="M2.64-26.80L0.80-26.80L0.80-30L9.28-30L9.28-26.80L6.32-26.80L12.12-4.40L17.92-26.80L16.20-26.80L16.20-30L24.84-30L24.84-26.80L23.08-26.80L28.88-4.40L34.68-26.80L31.76-26.80L31.76-30L40.24-30L40.24-26.80L38.36-26.80L31.44 0L26.52 0L20.52-23.16L14.52 0L9.60 0L2.64-26.80Z M44.24-22.80L44.24-26L63.28-26L63.28-18.16L60.08-18.16L60.08-22.80L50.72-22.80L50.72-14.60L60.08-14.60L60.08-11.40L50.72-11.40L50.72-3.20L60.08-3.20L60.08-7.84L63.28-7.84L63.28 0L44.24 0L44.24-3.20L47.04-3.20L47.04-22.80L44.24-22.80Z M69.68-22.80L69.68-26L85.68-26L89.84-21.60L89.84-16L87.68-13.72L90.64-10.64L90.64-4.40L86.48 0L69.68 0L69.68-3.20L72.48-3.20L72.48-22.80L69.68-22.80ZM84.68-11.84L76.16-11.84L76.16-3.44L84.88-3.44L87.20-5.80L87.20-9.24L84.68-11.84ZM84.12-22.56L76.16-22.56L76.16-15.04L84.08-15.04L86.40-17.40L86.40-20.20L84.12-22.56Z M111.04-26.80L111.04-30L128.08-30L132.24-25.60L132.24-4.40L128.08 0L111.04 0L111.04-3.20L113.84-3.20L113.84-26.80L111.04-26.80ZM117.52-26.56L117.52-3.44L126.48-3.44L128.56-5.56L128.56-24.44L126.52-26.56L117.52-26.56Z M138.64-22.80L138.64-26L157.68-26L157.68-18.16L154.48-18.16L154.48-22.80L145.12-22.80L145.12-14.60L154.48-14.60L154.48-11.40L145.12-11.40L145.12-3.20L154.48-3.20L154.48-7.84L157.68-7.84L157.68 0L138.64 0L138.64-3.20L141.44-3.20L141.44-22.80L138.64-22.80Z M163.88-22.80L161.68-22.80L161.68-26L170.16-26L170.16-22.80L167.56-22.80L174.60-3.16L181.68-22.80L179.08-22.80L179.08-26L187.56-26L187.56-22.80L185.36-22.80L177.16 0L172.08 0L163.88-22.80Z M191.56-22.80L191.56-26L210.60-26L210.60-18.16L207.40-18.16L207.40-22.80L198.04-22.80L198.04-14.60L207.40-14.60L207.40-11.40L198.04-11.40L198.04-3.20L207.40-3.20L207.40-7.84L210.60-7.84L210.60 0L191.56 0L191.56-3.20L194.36-3.20L194.36-22.80L191.56-22.80Z M217.00-22.80L217.00-26L226.68-26L226.68-22.80L223.48-22.80L223.48-3.20L232.20-3.20L232.20-7.84L235.24-7.84L235.24 0L217.00 0L217.00-3.20L219.80-3.20L219.80-22.80L217.00-22.80Z M254.68 0L243.40 0L239.24-4.40L239.24-21.60L243.40-26L254.68-26L258.84-21.60L258.84-4.40L254.68 0ZM242.92-5.56L244.96-3.44L253.08-3.44L255.16-5.56L255.16-20.44L253.12-22.56L245-22.56L242.92-20.44L242.92-5.56Z M265.24-22.80L265.24-26L281.24-26L285.40-21.60L285.40-13.20L281.24-8.80L271.72-8.80L271.72-3.20L274.92-3.20L274.92 0L265.24 0L265.24-3.20L268.04-3.20L268.04-22.80L265.24-22.80ZM279.68-22.56L271.72-22.56L271.72-12.24L279.64-12.24L281.96-14.60L281.96-20.20L279.68-22.56Z M290.20-22.80L290.20-26L309.24-26L309.24-18.16L306.04-18.16L306.04-22.80L296.68-22.80L296.68-14.60L306.04-14.60L306.04-11.40L296.68-11.40L296.68-3.20L306.04-3.20L306.04-7.84L309.24-7.84L309.24 0L290.20 0L290.20-3.20L293.00-3.20L293.00-22.80L290.20-22.80Z M315.64-22.80L315.64-26L331.64-26L335.80-21.60L335.80-13.60L331.76-9.36L335.48-3.20L337.60-3.20L337.60 0L330.48 0L330.48-3.20L331.60-3.20L328.00-9.20L322.12-9.20L322.12-3.20L324.52-3.20L324.52 0L315.64 0L315.64-3.20L318.44-3.20L318.44-22.80L315.64-22.80ZM330.08-22.56L322.12-22.56L322.12-12.64L330.04-12.64L332.36-15L332.36-20.20L330.08-22.56Z"></path></g>
        </svg>
      </g></svg>